<svg width="400" height="600" xmlns="http://www.w3.org/2000/svg">
 <g id="Layer_1">
  <title>Layer 1</title>
  <path stroke-width="3" d="m237,242c0,1 -0.48055,2.03874 0,5c0.50655,3.12144 1.5405,5.0535 2,7c0.51375,2.17624 1.4588,3.69345 2,5c0.38269,0.92389 0.78986,2.07843 2,5c0.85571,2.06586 1.62178,4.0361 2,6c1.01837,5.28799 4,8 6,12c1,2 2.03552,6.50424 5,11c2.33554,3.54193 4.11215,5.9183 7,10c4.16495,5.88672 6.8819,9.07278 10,14c1.92807,3.04672 4.73578,7.23541 11,14c1.92178,2.07529 5.5582,6.51929 9,9c3.62799,2.6149 10.22272,7.724 14,11c3.20511,2.77979 7.75256,6.34491 16,12c7.78061,5.33499 11.80716,9.35815 19,13c8.78677,4.44885 15.96887,9.05365 28,16c6.98209,4.03122 14.28198,7.55893 27,16c7.16733,4.75702 13.63876,10.38443 20,16c8.54764,7.54572 12.22021,10.79489 15,14c3.276,3.77728 6,8 10,13l2,2l1,2" id="svg_4" stroke="#fff" fill="none"/>
  <path stroke-width="3" d="m220,107c0,-1 -1,-1 -2,-1c-1,0 -2,0 -4,0c-2,0 -4,0 -7,0c-1,0 -2,0 -4,0c-4,0 -6.07843,0.78985 -9,2c-2.06586,0.85571 -5.85274,3.1731 -7,4c-1.814,1.30745 -4.38687,2.91761 -7,4c-0.92387,0.38268 -2.15224,1.23463 -4,2c-1.30656,0.5412 -1.69255,3.186 -3,5c-1.65381,2.29454 -3.76952,3.39099 -6,7c-1.66251,2.68999 -2.42043,5.08582 -3,7c-1.04483,3.45085 -3.49345,7.87856 -4,11c-0.48055,2.96126 0,7 0,11c0,2 0,6 0,8c0,3 -0.76537,6.15224 0,8c1.0824,2.61313 2.48625,2.82375 3,5c0.4595,1.9465 0,5 1,7c1,2 1.5405,5.0535 2,7c0.51375,2.17625 1.42043,4.08582 2,6c1.04483,3.45085 3.23463,5.15224 4,7c1.0824,2.61313 3.69255,4.186 5,6c1.65381,2.29454 2.70546,3.34619 5,5c1.814,1.30745 3.186,1.69255 5,3c1.14726,0.8269 3.85274,3.1731 5,4c1.814,1.30745 3.07843,1.78986 6,3c2.06586,0.85571 2.82375,2.48625 5,3c0.97325,0.22975 3.38687,1.9176 6,3c0.92387,0.38269 2.85274,1.1731 4,2c1.814,1.30745 4.15224,0.23463 6,1c1.30656,0.5412 4.02675,0.77025 5,1c2.17625,0.51375 4,1 6,1c2,0 4,0 5,0c1,0 3,0 4,0c2,0 4,0 7,0c3,0 4.02582,0.32036 6,0c3.12144,-0.50655 7.02582,-0.67964 9,-1c3.12143,-0.50655 5,-2 7,-3c2,-1 3.85272,-2.1731 5,-3c1.814,-1.30745 3.15225,-2.23463 5,-3c1.30655,-0.5412 2,-2 3,-3c2,-2 2.69254,-2.186 4,-4c0.8269,-1.14726 4.58578,-1.58578 6,-3c0.70709,-0.70711 0.69254,-3.186 2,-5c0.8269,-1.14726 2.48627,-2.82375 3,-5c0.22977,-0.97325 0.69254,-4.186 2,-6c0.8269,-1.14726 1,-3 1,-6c0,-4 0,-5 0,-8c0,-2 1.48627,-4.82375 2,-7c0.4595,-1.9465 0.49347,-3.87856 1,-7c0.32037,-1.97418 0,-5 0,-7c0,-2 0,-6 0,-8c0,-2 0,-5 0,-6c0,-4 0,-7 0,-9c0,-2 -0.9176,-4.38687 -2,-7c-0.38269,-0.92387 -2.41885,-2.25658 -4,-7c-0.31622,-0.94868 -2,-3 -3,-4c-2,-2 -6,-5 -7,-6c-2,-2 -3.76935,-3.30322 -5,-4c-3.58792,-2.03145 -6.31,-1.33749 -9,-3c-1.203,-0.7435 -5,-2 -7,-3c-2,-1 -5,-2 -8,-3c-3,-1 -4.31001,-0.33749 -7,-2c-1.203,-0.7435 -4,-2 -6,-2c-1,0 -2.82375,-0.48626 -5,-1c-1.9465,-0.4595 -3,0 -5,0c-1,0 -4,0 -6,0c-1,0 -2.69344,-0.4588 -4,-1c-2.77164,-1.14805 -4,0 -5,0l-1,0l-1,0" id="svg_6" stroke="#fff" fill="none"/>
  <path stroke-width="3" d="m287,334c1,0 1.4588,-0.69345 2,-2c0.76538,-1.84775 0.29291,-3.29291 1,-4c0.70709,-0.70709 1.82443,-1.0979 3,-3c0.52573,-0.85065 0.77023,-3.02676 1,-4c0.51373,-2.17624 1,-3 2,-4c1,-1 0.69254,-2.186 2,-4c0.8269,-1.14728 2.1731,-1.85272 3,-3c1.30746,-1.814 2.07611,-2.61731 3,-3c1.30655,-0.5412 2,-2 4,-4c1,-1 2.14935,-0.47427 3,-1c1.9021,-1.17557 2.02676,-2.77023 3,-3c2.17624,-0.51373 3.186,-1.69254 5,-3c1.14728,-0.8269 2.69345,-2.4588 4,-3c0.92389,-0.38269 3.07611,-1.61731 4,-2c2.61313,-1.0824 3.186,-2.69254 5,-4c1.14728,-0.8269 1.69345,-2.4588 3,-3c0.92389,-0.38269 2,-2 3,-3c1,-1 2,-2 3,-3c1,-1 1.4588,-1.69345 2,-3c0.38269,-0.92389 1.4588,-1.69345 2,-3c0.38269,-0.92389 0,-2 0,-3c0,-1 1,-1 1,-2c0,-1 0,-2 0,-3l0,-1l1,0l0,-1" id="svg_9" stroke="#fff" fill="none"/>
  <path stroke-width="3" d="m326,234c0,1 1.41422,2.58578 0,4c-0.70709,0.70711 -1,1 -1,3c0,1 0,2 0,3c0,1 0,2 0,3c0,2 0.07611,2.61731 1,3c1.30655,0.5412 1,2 2,2c1,0 1.186,0.69255 3,2c1.14728,0.8269 2.07611,1.61731 3,2c1.30655,0.5412 2,2 3,2c1,0 1.69345,1.4588 3,2c0.92389,0.38269 1.69345,0.4588 3,1c0.92389,0.38269 2,0 4,0c1,0 2,0 4,0c1,0 3,0 4,0c1,0 2.15225,-0.23462 4,-1c1.30655,-0.5412 1.0979,-2.82443 3,-4c0.85065,-0.52573 2.1731,-1.85274 3,-3c1.30746,-1.814 2.4588,-2.69344 3,-4c0.76538,-1.84776 2,-3 2,-4c0,-1 -0.70709,-3.29289 0,-4c0.70709,-0.70711 1,-1 1,-3c0,-1 0,-2 0,-3c0,-1 0,-2 0,-3c0,-1 0,-2 0,-3c0,-1 0,-2 0,-3c0,-1 0,-2 0,-3c0,-1 0,-2 0,-3c0,-1 0,-2 0,-3c0,-1 -0.4588,-1.69344 -1,-3c-0.38269,-0.92387 -0.61731,-2.07613 -1,-3c-0.5412,-1.30656 -1,-2 -2,-3c-1,-1 -2,-2 -3,-3c-1,-1 -1.58578,-0.58578 -3,-2c-0.70709,-0.70711 -1,-1 -2,-1c-1,0 -2,0 -3,0c-1,0 -2,0 -3,0c-1,0 -2.9176,-0.61313 -4,2c-0.38269,0.92387 -1,2 -1,3c0,1 -0.77023,1.02675 -1,2c-0.51373,2.17625 -1,3 -1,4c0,1 0,2 0,3c0,1 0,3 0,4c0,1 -1,2 -1,3c0,1 0,2 0,3c0,1 -1,2 -1,3c0,1 -0.29291,1.29289 -1,2c-0.70709,0.70711 -1.29291,0.29289 -2,1c-0.70709,0.70711 -0.29291,1.29289 -1,2c-0.70709,0.70711 -3,1 -4,1c-1,0 -2,0 -3,0c-1,0 -2,0 -2,-1c0,-1 -0.29291,-1.29289 -1,-2c-0.70709,-0.70711 -2,0 -3,0c-1,0 -1,1 -1,2l0,1" id="svg_14" stroke="#fff" fill="none"/>
  <path transform="rotate(0.509653 225.5 328.085)" stroke-width="3" d="m284,337c-1,0 -2,0 -3,0c-1,0 -2.07611,0.38269 -3,0c-1.30655,-0.5412 -2,-2 -4,-2c-1,0 -3.07611,-0.61731 -4,-1c-1.30655,-0.5412 -2.0535,-0.5405 -4,-1c-2.17624,-0.51373 -5.00751,-1.87781 -6,-2c-4.09221,-0.50378 -6.82375,-2.48627 -9,-3c-1.9465,-0.4595 -4,-1 -9,-1c-3,0 -4,0 -7,0c-3,0 -5,0 -7,0c-2,0 -5,0 -9,0c-1,0 -4,0 -7,0c-3,0 -6,0 -8,0c-2,0 -3,0 -5,0c-2,0 -3.07613,0.38269 -4,0c-1.30656,-0.5412 -3,-1 -4,-1c-2,0 -3.186,0.30746 -5,-1c-1.14726,-0.8269 -3.02675,-0.77023 -4,-1c-2.17625,-0.51373 -3.29289,-0.29291 -4,-1c-0.70711,-0.70709 -0.82375,-1.48627 -3,-2c-0.97325,-0.22977 -2,0 -3,0c-1,0 -1,-1 -2,-1c-1,0 -2,0 -3,0l0,-1" id="svg_15" stroke="#fff" fill="none"/>
  <path stroke-width="3" d="m164,317c0,1 -1,1 -2,1c-2,0 -3,0 -4,0c-1,0 -2,0 -4,-2c-1,-1 -1.29289,-2.29291 -2,-3c-0.70711,-0.70709 -0.69344,-1.4588 -2,-2c-0.92387,-0.38269 -1.4588,-1.69345 -2,-3c-0.38269,-0.92389 -1,-1 -1,-3c0,-2 -1.49345,-2.87857 -2,-6c-0.16019,-0.98709 -1,-3 -1,-5c0,-1 -0.29289,-1.29291 -1,-2c-0.70711,-0.70709 -0.4588,-2.69345 -1,-4c-0.38269,-0.92389 0,-2 0,-3c0,-1 0,-2 0,-3c0,-1 -0.38269,-2.07611 0,-3c0.5412,-1.30655 0.61731,-2.07611 1,-3c0.5412,-1.30655 1.61731,-1.07611 2,-2c0.5412,-1.30655 1.69344,-2.4588 3,-3c0.92387,-0.38269 2,-2 3,-2c1,0 2,0 3,0c1,0 2,0 3,0c1,0 1.29289,0.29291 2,1c0.70711,0.70709 1.48625,0.82376 2,3c0.22975,0.97324 0.4588,1.69345 1,3c0.38269,0.92389 0,2 0,3c0,1 0.4588,1.69345 1,3c0.38269,0.92389 0.29289,1.29291 1,2c0.70711,0.70709 1,1 2,1c1,0 1.29289,0.29291 2,1c0.70711,0.70709 2,0 3,0c1,0 2.29289,0.70709 3,0c0.70711,-0.70709 1,-2 2,-2c1,0 2.07613,-0.61731 3,-1c1.30656,-0.5412 2,-1 3,-1c2,0 3.29289,-0.70709 4,0c0.70711,0.70709 0,2 0,3c0,2 0,3 0,4c0,1 -0.69344,2.4588 -2,3c-0.92387,0.38269 -1.29289,0.29291 -2,1c-0.70711,0.70709 -0.29289,2.29291 -1,3c-0.70711,0.70709 -1.29289,0.29291 -2,1c-0.70711,0.70709 0.30656,2.4588 -1,3c-0.92387,0.38269 -0.09789,1.82443 -2,3c-0.85065,0.52573 -1.29289,0.29291 -2,1c-0.70711,0.70709 -0.4588,1.69345 -1,3c-0.38269,0.92389 0.70711,2.29291 0,3c-0.70711,0.70709 -1,1 -1,2c0,1 -1,1 -1,2c0,1 -0.70711,2.29291 0,3c0.70711,0.70709 0.29289,1.29291 1,2c0.70711,0.70709 1.29289,0.29291 2,1c0.70711,0.70709 1,1 2,1l1,0l1,0" id="svg_22" stroke="#fff" fill="none"/>
 </g>

</svg>