<svg width="400" height="600" xmlns="http://www.w3.org/2000/svg">

 <g>
  <title>Layer 1</title>
  <path d="m800,137c-4,0 -5,0 -7,0c-1,0 -3.69342,0.4588 -5,1c-1.84778,0.76537 -3.7699,0.54863 -8,2c-4.823,1.65482 -8,3 -11,4c-6,2 -7.96887,3.07959 -13,5c-10.93512,4.17403 -13.41205,3.96855 -17,6c-3.69196,2.09035 -5.7085,4.67261 -12,7c-3.867,1.4305 -6.74677,3.37134 -11,6c-5.70636,3.52672 -9.7027,6.54137 -13,8c-3.77063,1.66801 -7.88153,4.19028 -11,6c-1.93402,1.12234 -6,3 -8,5c-4,4 -5.52014,6.32367 -7,8c-2.38617,2.703 -4.71411,5.21167 -7,8c-1.79321,2.18735 -1.83771,5.83772 -5,9c-1.58112,1.58115 -4.54138,4.70267 -6,8c-1.66803,3.77065 -3.14771,6.94341 -5,12c-1.08771,2.96933 -3.19031,6.88152 -5,10c-2.24469,3.868 -2.96857,7.41208 -5,11c-0.69678,1.23065 -1.67944,3.57111 -4,8c-1.46765,2.80109 -2.16797,5.92035 -4,10c-2.20605,4.91257 -2,9 -2,11c0,4 0,8 0,11c0,3 0,7 0,9c0,5 0,9 0,13c0,2 0.30853,6.87354 1,9c1.88104,5.78461 1,9 1,13c0,5 1.51129,9.02997 2,13c0.50378,4.09222 1.11896,7.21539 3,13c0.69147,2.12646 1.75562,6.01498 2,8c0.50378,4.09222 1.78986,8.07843 3,11c1.71143,4.13171 3,7 4,10c1,3 3.10443,5.93292 5,9c4.23859,6.85815 6.54138,10.70267 8,14c1.66803,3.77063 3,7 8,12c2,2 2.71411,5.21167 5,8c3.58636,4.37469 6,6 8,8c4,4 8.21167,6.71411 11,9c3.28101,2.68979 5.74677,5.37134 10,8c5.70636,3.5267 6.70544,4.34619 9,6c1.81396,1.30746 6,3 9,5c3,2 7,4 11,6c6,3 10.86829,4.28857 15,6c2.92157,1.21014 10.93414,4.14429 13,5c5.84314,2.42029 9.79749,2.60931 15,4c6.83124,1.82605 8.90778,1.49622 13,2c4.96252,0.61093 10,1 14,1c2,0 4,0 6,0c2,0 3,0 5,0l1,-2l0,-1" id="svg_3" stroke-width="3" stroke="#ffffff" fill="none"/>
  <path d="m702,247c-2,0 -3.29291,-0.70711 -4,0c-0.70709,0.70711 -0.29291,1.29289 -1,2c-0.70709,0.70711 -0.0979,1.82443 -2,3c-0.85065,0.52573 -1.29291,0.29289 -2,1c-0.70709,0.70711 -0.4588,1.69344 -1,3c-0.38269,0.92389 -1.1731,1.85272 -2,3c-1.30743,1.814 -1.48627,2.82376 -2,5c-0.22974,0.97324 -1,2 -1,3c0,1 0,2 0,4c0,1 0,2 0,3c0,1 0.29291,2.29291 1,3c0.70709,0.70709 0.69342,1.4588 2,2c0.92389,0.38269 2,0 3,0c1,0 2,0 3,0c1,0 2,1 4,1c1,0 1.29291,0.29291 2,1c0.70709,0.70709 2,0 3,0c1,0 1,1 3,1c1,0 1,1 2,1c2,0 3,0 4,0c1,0 2.07611,-0.61731 3,-1c1.30658,-0.5412 1.29291,-2.29291 2,-3c0.70709,-0.70709 1.29291,-0.29291 2,-1c0.70709,-0.70709 1,-2 1,-3c0,-1 1,-2 2,-3c1,-1 1,-2 1,-4c0,-1 0,-3 0,-4c0,-1 0,-2 0,-5c0,-2 0,-4 0,-5c0,-2 1.41418,-3.58578 0,-5c-0.70709,-0.70711 -1.69342,-2.4588 -3,-3c-1.84778,-0.76537 -2,-1 -3,-1c-2,0 -3,0 -4,0c-1,0 -2,0 -3,0c-1,0 -3,0 -4,0c-1,0 -3,0 -4,0c-1,0 -2,0 -6,0l-4,0l-5,0" id="svg_4" stroke-width="3" stroke="#ffffff" fill="none"/>
  <path d="m704,349c-1,0 -2.29291,-0.70709 -3,0c-0.70709,0.70709 -0.61731,2.07611 -1,3c-0.5412,1.30655 -1,2 -2,3c-1,1 -1,3 -1,4c0,1 -0.77026,3.02676 -1,4c-0.51373,2.17624 -2,3 -2,4c0,2 0.22974,3.02676 0,4c-0.51373,2.17624 -1,3 -1,5c0,1 0,2 0,5c0,1 0.41888,1.41885 2,3c1.58112,1.58115 1.4588,2.69345 2,4c0.38269,0.92389 1.61731,2.07611 2,3c0.5412,1.30655 1.85272,2.1731 3,3c1.81396,1.30746 3,2 4,2c1,0 1.87854,1.49347 5,2c1.97418,0.32037 3,0 4,0c2,0 4,0 5,0c2,0 3,0 5,0c1,0 3,0 4,0c1,0 0.69342,-1.4588 2,-2c1.84778,-0.76538 3.4588,-1.69345 4,-3c0.38269,-0.92389 1,-2 1,-4c0,-1 0.4588,-2.69345 1,-4c0.76538,-1.84775 0,-5 0,-6c0,-3 0,-5 0,-8c0,-1 0.22974,-2.02676 0,-3c-0.51373,-2.17624 -0.85193,-3.22836 -2,-6c-0.5412,-1.30655 -1.29291,-2.29291 -2,-3c-1.41418,-1.41422 -1.61731,-4.07611 -2,-5c-0.5412,-1.30655 -2,-3 -3,-4c-1,-1 -1.47424,-1.14935 -2,-2c-1.1756,-1.9021 -2.29291,-1.29291 -3,-2c-0.70709,-0.70709 -2,0 -3,0c-1,0 -2,0 -3,0c-1,0 -2,0 -3,0c-1,0 -2,0 -3,0c-1,0 -2,0 -3,0c-1,0 -2,0 -3,0c-1,0 -2,0 -2,1l-1,0l0,1" id="svg_5" stroke-width="3" stroke="#ffffff" fill="none"/>
  <path d="m799,511c-1,0 -2,0 -3,0c-1,0 -2,0 -3,0c-1,0 -2,0 -3,0c-2,0 -4,0 -5,0c-2,0 -4.07611,0.61731 -5,1c-1.30658,0.5412 -1.05353,1.54047 -3,2c-2.17627,0.51373 -2.18604,1.69257 -4,3c-1.14728,0.8269 -2.0979,2.8244 -4,4c-0.85065,0.52576 -3,1 -4,2c-2,2 -4,3 -5,4c-1,1 -1,2 -1,3c0,1 0,2 0,3c0,1 0.69342,2.4588 2,3c0.92389,0.38269 1.29291,0.29291 2,1c0.70709,0.70709 2,0 3,0c1,0 2,0 3,0c1,0 2,0 4,0c1,0 3.02673,0.22974 4,0c2.17627,-0.51373 3.82373,-1.48627 6,-2c1.94647,-0.45953 3,0 6,0c1,0 4,0 5,0c1,0 2,-1 3,-1c1,0 0,0 -1,0c-1,0 -2,0 -4,0c-2,0 -3,0 -4,0c-2,0 -3,0 -4,0c-1,0 -2,0 -3,0c-1,0 -2.29291,0.29291 -3,1c-0.70709,0.70709 -1.29291,0.29291 -2,1c-0.70709,0.70709 -0.85272,1.1731 -2,2c-1.81396,1.30743 -2.69342,2.4588 -4,3c-0.92389,0.38269 -2,1 -4,3c-1,1 -1.41888,1.41888 -3,3c-1.58112,1.58112 -2.29291,1.29291 -3,2c-0.70709,0.70709 0,2 0,3c0,1 1,2 2,2c1,0 2,0 3,0c1,0 4.02582,0.32037 6,0c3.12146,-0.50653 5.02673,-1.77026 6,-2c2.17627,-0.51373 3.15222,-0.23462 5,-1c1.30658,-0.5412 2.87854,-1.49347 6,-2c2.96124,-0.48053 5.82373,-0.48627 8,-1c0.97327,-0.22974 3,0 4,0c1,0 3,1 3,0c0,-1 -2,0 -3,0c-1,0 -2,0 -3,0c-1,0 -3,0 -5,0c-1,0 -3,0 -4,0c-1,0 -2,0 -3,0c-1,0 -2,0 -3,0c-1,0 -1.58582,-0.41418 -3,1c-0.70709,0.70709 -1.29291,0.29291 -2,1c-0.70709,0.70709 -1.29291,2.29291 -2,3c-0.70709,0.70709 -4.1731,1.85272 -5,3c-1.30743,1.81396 -1.90631,2.10339 -3,3c-2.78833,2.28589 -5,3 -6,4c-1,1 -1.70709,2.29291 -1,3c0.70709,0.70709 2,0 4,0c1,0 0.69342,1.4588 2,2c0.92389,0.38269 2,0 3,0c2,0 3,0 4,0c1,0 2,0 3,0c1,0 2,0 3,0c1,0 2,0 3,0c1,0 2,-1 4,-1c1,0 1.29291,-0.29291 2,-1c0.70709,-0.70709 3,0 4,0c1,0 1,-1 2,-1l1,0l0,-1" id="svg_7" stroke-width="3" stroke="#ffffff" fill="none"/>
  <path d="m799,125c-1,0 -2,0 -4,0c-1,0 -2,0 -5,0c-2,0 -4,0 -5,0c-3,0 -5,0 -7,0c-2,0 -4,0 -6,0c-1,0 -2,0 -3,0c-2,0 -3,0 -4,-1c-1,-1 -2.4588,-0.69344 -3,-2c-0.38269,-0.92388 -0.4588,-1.69344 -1,-3c-0.76538,-1.84776 0,-3 0,-4c0,-1 0,-2 0,-3c0,-1 0,-2 0,-3c0,-1 -0.38269,-2.07612 0,-3c0.5412,-1.30656 2.07611,-1.61732 3,-2c1.30658,-0.5412 2.08026,-1.31074 5,-2c2.17627,-0.51374 3,-1 4,-1c1,0 2,0 3,0c2,0 3,0 5,0c1,0 2,0 4,0c1,0 2,0 3,0c1,0 2,-1 3,-1c1,0 1.69342,-0.4588 3,-1c0.92389,-0.38268 2,0 3,0c1,0 3,1 3,0c0,-1 -1.69342,0.4588 -3,1c-2.77167,1.14805 -6,1 -10,1c-2,0 -3,1 -5,1c-1,0 -3,0 -4,0c-2,0 -3,0 -5,0c-1,0 -2,0 -3,0c-1,0 -2,0 -3,0c-1,0 -2,0 -3,0c-1,0 -2.29291,0.70711 -3,0c-0.70709,-0.70711 -2.14935,-2.47427 -3,-3c-1.9021,-1.17557 -2.18604,-1.69255 -4,-3c-1.14728,-0.8269 -1.29291,-2.29289 -2,-3c-0.70709,-0.70711 -1,-1 -1,-2c0,-1 0,-2 0,-3c0,-1 0,-2 1,-3c1,-1 2,-2 3,-2c1,0 2.87854,-1.49346 6,-2c0.98706,-0.16018 2,0 3,0c2,0 6,0 7,0c2,0 3,0 5,0c1,0 2,0 4,0c1,0 4,0 5,0c1,0 3,0 4,0c2,0 3,0 4,0c1,0 1.29291,-0.29289 2,-1c0.70709,-0.70711 2,0 1,0c-2,0 -3,0 -5,0c-2,0 -4,0 -5,0c-1,0 -2,0 -3,0c-1,0 -3,0 -4,0c-1,0 -2,0 -3,0c-2,0 -4,0 -5,0c-1,0 -2,0 -3,0c-1,0 -2,0 -3,0c-1,0 -2.07611,0.38268 -3,0c-1.30658,-0.5412 -2.4588,-0.69344 -3,-2c-0.38269,-0.92388 -1,-1 -1,-2c0,-1 0,-2 0,-3c0,-1 0,-2 0,-3c0,-1 -0.70709,-2.29289 0,-3c0.70709,-0.70711 0.69342,-1.4588 2,-2c0.92389,-0.38268 2,-1 4,-1c2,0 2.69342,-0.45881 4,-1c1.84778,-0.76537 4,0 5,0c1,0 2,0 4,0c1,0 2,0 3,0c2,0 3,0 4,0c1,0 2,0 3,0c1,0 3.07611,0.38268 4,0c1.30658,-0.54119 3,-1 4,-1l0,-1l1,0" id="svg_8" stroke-width="3" stroke="#ffffff" fill="none"/>
  <path d="m631,293c-1,0 -2,0 -3,0c-2,0 -3,0 -5,0c-2,0 -4,0 -5,0c-1,0 -3,0 -5,0l-1,0l-1,0" id="svg_14" stroke-width="3" stroke="#ffffff" fill="none"/>
  <path d="m170,160c0,-1 -2,-1 -3,-1c-1,0 -3,0 -6,0c-4,0 -7.41208,-1.03145 -11,1c-2.4613,1.39357 -6.38074,4.52222 -9,7c-3.63226,3.43608 -6.32718,5.74184 -11,12c-2.15718,2.88904 -4.66447,6.45807 -7,10c-2.96449,4.49576 -5.95915,10.43547 -8,15c-2.08127,4.65492 -3,9 -5,13c-1,2 -1.49622,5.90779 -2,10c-0.61092,4.96254 0,10 0,14c0,2 0,5 0,9c0,4 2.14773,6.94342 4,12c1.08769,2.96933 4.07764,9.55801 8,15c2.48071,3.4418 5,8 9,12c3,3 4.85075,7.21005 9,10c4.83881,3.2536 11,7 15,9c4,2 9,3 15,3c5,0 10,0 15,0c4,0 12.04468,0.23862 18,-1c4.03671,-0.8396 6.78423,-3.65457 15,-6c4.90314,-1.39975 11.17697,-3.34518 16,-5c4.23007,-1.45139 11,-5 14,-7c3,-2 6.40894,-4.77637 9,-10c2.39297,-4.82428 2.37875,-7.83209 4,-12c2.63922,-6.78488 4.49756,-13.92578 5,-19c0.39417,-3.98053 0,-9 0,-18c0,-5 0.61093,-11.03746 0,-16c-0.50378,-4.09221 -2.54706,-13.11237 -4,-18c-1.53448,-5.16191 -5.14388,-9.90654 -9,-16c-3.1181,-4.92722 -7,-9 -10,-13c-3,-4 -6,-9 -8,-11c-2,-2 -2.7025,-3.56349 -8,-6c-2.87297,-1.32138 -5,-3 -9,-3c-2,0 -5,0 -10,0c-2,0 -4,0 -10,0c-5,0 -9,0 -12,0c-4,0 -7,0 -10,0c-4,0 -9,0 -14,0c-4,0 -7,0 -8,0c-1,0 -3,1 -4,2l0,1" id="svg_44" stroke-width="3" stroke="#ffffff" fill="none"/>
  <path d="m264,262c1,0 2.07611,-0.38269 3,0c1.30655,0.5412 1.77023,2.02676 2,3c0.51373,2.17624 2,3 4,5c1,1 1.77023,3.02676 2,4c0.51373,2.17624 2.10339,2.90634 3,4c4.57175,5.57666 5,8 6,9c1,1 1.77023,3.02676 2,4c0.51373,2.17624 2.10339,3.90634 3,5c2.28589,2.78833 2.87766,5.06601 4,7c1.80972,3.11847 3.69254,6.186 5,8c2.48071,3.4418 5.22272,5.724 9,9c4.2735,3.70639 6.21167,6.71411 9,9c2.18735,1.79318 4.70547,5.34619 7,7c1.814,1.30746 5.70547,3.34619 8,5c3.62799,2.6149 8.02676,4.77023 9,5c4.35251,1.0275 7.66891,5.62021 11,7c4.71088,1.95132 9.17697,2.34518 14,4c6.34512,2.17706 10.02521,3.88135 15,5c4.02264,0.90457 11,2 14,2c4,0 7,0 10,0c4,0 8,0 11,0c2,0 4,0 5,0l1,0l0,-1" id="svg_45" stroke-width="3" stroke="#ffffff" fill="none"/>
  <path d="m294,303c0,0 0,-1 0,-2c0,-1 0.31073,-3.08026 1,-6c0.51373,-2.17624 2,-4 2,-6c0,-3 0.1731,-4.85272 1,-6c1.30746,-1.814 1.49622,-5.90778 2,-10c0.12219,-0.99249 0.43268,-3.05414 1,-6c1.01837,-5.28799 1.08099,-7.10699 2,-11c0.51373,-2.17625 2.49622,-4.90779 3,-9c0.24435,-1.98502 1,-6 1,-9c0,-5 0,-8 0,-11c0,-4 0,-7 0,-12c0,-4 0,-8 0,-12c0,-7 0.64072,-11.05165 0,-15c-0.50653,-3.12144 -2.98691,-6.75711 -4,-13c-0.32037,-1.97418 -2,-6 -3,-8c-2,-4 -4,-7 -6,-10c-2,-3 -4,-5 -8,-9c-2,-2 -4.43463,-3.15099 -7,-5c-4.05621,-2.92355 -4.33749,-6.31001 -6,-9c-2.2305,-3.60901 -5,-6 -6,-8c-1,-2 -2.41589,-4.76108 -4,-8c-1.38934,-2.84072 -2.14429,-4.93414 -3,-7c-1.21014,-2.92156 -1,-5 -2,-7l-1,-1l0,-1" id="svg_46" stroke-width="3" stroke="#ffffff" fill="none"/>
  <path d="m290,304c-1,0 -1.29291,1.29291 -2,2c-0.70709,0.70709 -2.23462,1.15225 -3,3c-0.5412,1.30655 -0.69254,2.186 -2,4c-0.8269,1.14728 -1,2 -1,4c0,1 0,4 0,5c0,2 0,4 0,7c0,3 1,5 1,6c0,2 2.48627,3.82376 3,6c0.4595,1.9465 0.69254,4.186 2,6c0.8269,1.14728 1.82443,2.0979 3,4c0.52573,0.85065 1.1731,3.85272 2,5c1.30746,1.814 1.5405,3.0535 2,5c0.51373,2.17624 1.5405,5.0535 2,7c0.51373,2.17624 2.48627,5.82376 3,8c0.4595,1.9465 -0.43048,5.133 1,9c0.77579,2.09717 1.48627,4.82376 2,7c0.22977,0.97324 0.78986,6.07843 2,9c0.85571,2.06586 2.48627,4.82376 3,7c0.91901,3.89301 0.48627,6.82376 1,9c0.4595,1.9465 0,5 0,8c0,2 1.14877,5.13376 0,10c-0.51373,2.17624 -1,6 -1,8c0,3 0.14804,6.22836 -1,9c-0.5412,1.30655 -1.67963,3.02582 -2,5c-0.50653,3.12143 -1.1731,3.85272 -2,5c-1.30746,1.814 -1,4 -1,5l0,1" id="svg_53" stroke-width="3" stroke="#ffffff" fill="none"/>
  <path d="m254,100c0,1 1,1 2,1c1,0 2,0 3,0c2,0 3,0 4,0c2,0 3,0 4,0c1,0 2.29291,0.70711 3,0c0.70709,-0.70711 0.61731,-1.07612 1,-2c0.5412,-1.30656 2.07611,-1.61732 3,-2c1.30655,-0.5412 0.61731,-2.07612 1,-3c0.5412,-1.30656 2,-2 2,-3c0,-1 1,-2 1,-3c0,-1 0,-2 0,-3c0,-1 0,-2 0,-3c0,-1 0,-2 0,-3c0,-1 0,-2 0,-4c0,-2 0,-3 0,-4c0,-2 0,-4 0,-5c0,-1 -0.61731,-3.07612 -1,-4c-0.5412,-1.30656 -1,-3 -1,-4c0,-1 -0.4588,-2.69344 -1,-4c-0.76538,-1.84776 -1.1731,-2.85273 -2,-4c-1.30746,-1.81399 -2.07611,-2.61732 -3,-3c-1.30655,-0.54119 -2,-1 -3,-1c-1,0 -1.07611,0.61732 -2,1c-1.30655,0.54119 -1,2 -1,3c0,1 -1,2 -1,3c0,1 0.38269,2.07612 0,3c-0.5412,1.30656 -1,2 -1,3c0,1 0,2 0,4c0,1 0,2 0,3c0,2 -0.49347,2.87856 -1,6c-0.16019,0.98709 -1,3 -1,4c0,1 0.30655,2.4588 -1,3c-0.92389,0.38268 -1.07611,0.61732 -2,1c-1.30656,0.5412 -2,1 -3,1c-1,0 -1.69344,0.4588 -3,1c-0.92387,0.38268 -2,0 -3,0c-1,0 -1.69344,0.4588 -3,1c-0.92387,0.38268 -2,0 -2,1c0,1 -1,1 -1,3c0,1 0,2 0,3c0,1 0,2 0,3c0,1 0.29289,1.29289 1,2c0.70711,0.70711 0.69344,1.4588 2,2c0.92387,0.38268 1.29289,0.29289 2,1c0.70711,0.70711 2,0 3,0c1,0 2,0 3,0l0,1l1,0" id="svg_58" stroke-width="3" stroke="#ffffff" fill="none"/>
  <polyline stroke-linecap="round" id="svg_59" points="577,198 578,198 " stroke-width="3" stroke="#ffffff" fill="none"/>
  <polyline stroke-linecap="round" id="svg_60" points="720,442 717,442 " stroke-width="3" stroke="#ffffff" fill="none"/>
 </g>
</svg>