<?xml version="1.0" encoding="UTF-8"?>
<svg xmlns="http://www.w3.org/2000/svg" xmlns:xlink="http://www.w3.org/1999/xlink" viewBox="0 0 100 100" width="100px" height="100px">
<g id="surface24433492">
<path style=" stroke:none;fill-rule:nonzero;fill:rgb(100%,100%,100%);fill-opacity:1;" d="M 33.019531 1.785156 C 32.457031 1.808594 31.894531 1.910156 31.324219 2.113281 C 30.53125 2.398438 30 3.148438 30 3.992188 C 30 11.835938 28.8125 18.566406 28.363281 20.960938 L 10.378906 17.484375 C 9.792969 17.371094 9.1875 17.527344 8.726562 17.90625 C 8.265625 18.285156 8 18.851562 8 19.449219 C 8 30.664062 13.402344 36.730469 16.328125 39.570312 C 15.042969 39.851562 14.679688 39.835938 12.636719 40.492188 C 8.738281 41.746094 4.007812 43.707031 0.609375 46.992188 C 0.183594 47.402344 -0.0390625 47.980469 0.00390625 48.574219 C 0.046875 49.164062 0.347656 49.703125 0.828125 50.050781 C 5.019531 53.089844 8.726562 54.625 11.445312 55.816406 C 13.402344 56.675781 14.082031 57.367188 14.886719 58.117188 C 9.945312 62.589844 4.902344 66.078125 4.902344 66.078125 C 4.246094 66.507812 3.902344 67.285156 4.023438 68.0625 C 4.144531 68.839844 4.710938 69.472656 5.46875 69.679688 L 17.828125 73.089844 C 17.726562 74.804688 17.308594 79.117188 14.222656 85.082031 C 13.902344 85.703125 13.929688 86.445312 14.292969 87.039062 C 14.65625 87.636719 15.300781 88 16 88 C 21.59375 88 26.742188 86.488281 28.070312 86.070312 C 32.660156 94.398438 40.699219 100 50 100 C 59.28125 100 67.304688 94.425781 71.898438 86.128906 C 73.445312 86.75 77.15625 88 82 88 C 82.648438 88 83.253906 87.6875 83.628906 87.160156 C 84.003906 86.632812 84.101562 85.957031 83.890625 85.347656 C 82.359375 80.914062 82.136719 75.050781 82.082031 73.097656 C 83.164062 72.824219 84.710938 72.46875 87.421875 71.574219 C 89.1875 70.992188 90.980469 70.332031 92.472656 69.59375 C 93.21875 69.222656 93.886719 68.839844 94.484375 68.367188 C 95.082031 67.894531 95.722656 67.335938 95.957031 66.234375 C 96.128906 65.421875 95.78125 64.585938 95.082031 64.136719 C 90.980469 61.496094 88.425781 58.484375 87.035156 56.71875 C 89.890625 55.371094 96.324219 51.910156 99.847656 43.402344 C 100.101562 42.785156 100.035156 42.082031 99.664062 41.527344 C 99.292969 40.96875 98.667969 40.636719 98 40.636719 C 90.359375 40.636719 85.097656 39.664062 82.675781 39.167969 C 83.605469 36.296875 86.777344 26.863281 91.578125 20.675781 C 92.003906 20.125 92.117188 19.394531 91.871094 18.746094 C 91.625 18.09375 91.0625 17.617188 90.378906 17.484375 C 81.539062 15.777344 74.523438 18.972656 71.558594 20.476562 C 71.050781 17.695312 70 11.453125 70 3.992188 C 70 3.148438 69.46875 2.398438 68.675781 2.113281 C 66.402344 1.296875 64.167969 2.109375 62.019531 3.214844 C 59.871094 4.320312 57.710938 5.902344 55.730469 7.523438 C 52.574219 10.105469 50.964844 11.863281 50 12.859375 C 49.035156 11.863281 47.425781 10.105469 44.269531 7.523438 C 42.289062 5.902344 40.128906 4.320312 37.980469 3.214844 C 36.90625 2.660156 35.8125 2.179688 34.699219 1.941406 C 34.144531 1.820312 33.582031 1.761719 33.019531 1.785156 Z M 33.835938 6.175781 C 34.480469 6.246094 35.003906 6.183594 36.152344 6.773438 C 37.878906 7.660156 39.886719 9.101562 41.738281 10.617188 C 45.445312 13.652344 48.539062 16.953125 48.539062 16.953125 C 48.917969 17.359375 49.445312 17.585938 50 17.585938 C 50.554688 17.585938 51.082031 17.359375 51.460938 16.953125 C 51.460938 16.953125 54.554688 13.652344 58.261719 10.617188 C 60.113281 9.101562 62.121094 7.660156 63.847656 6.773438 C 64.996094 6.183594 65.519531 6.246094 66.164062 6.175781 C 66.441406 15.234375 68.042969 23.71875 68.042969 23.71875 C 68.171875 24.347656 68.597656 24.875 69.183594 25.136719 C 69.769531 25.398438 70.449219 25.363281 71.003906 25.042969 C 71.003906 25.042969 78.511719 21.117188 86.472656 21.335938 C 81.285156 29.542969 78.082031 40.136719 78.082031 40.136719 C 77.925781 40.664062 77.992188 41.230469 78.269531 41.703125 C 78.542969 42.179688 79 42.519531 79.53125 42.648438 C 79.53125 42.648438 86.21875 43.980469 94.578125 44.375 C 90.410156 51.160156 83.277344 54.292969 83.277344 54.292969 C 82.707031 54.515625 82.265625 54.984375 82.085938 55.570312 C 81.90625 56.15625 82.007812 56.792969 82.355469 57.296875 C 82.355469 57.296875 85.898438 61.898438 90.992188 65.832031 C 90.871094 65.898438 90.828125 65.941406 90.695312 66.007812 C 89.511719 66.59375 87.839844 67.222656 86.171875 67.773438 C 82.839844 68.871094 79.53125 69.671875 79.53125 69.671875 C 78.632812 69.886719 78 70.691406 78 71.617188 C 78 71.617188 78.214844 77.878906 79.542969 83.667969 C 76.433594 83.316406 74.464844 82.707031 73.636719 82.433594 C 75.144531 78.628906 76 74.421875 76 70 L 76 52 C 76 35.609375 64.515625 22 50 22 C 35.484375 22 24 35.609375 24 52 L 24 70 C 24 74.386719 24.839844 78.558594 26.324219 82.339844 C 25.140625 82.632812 22.433594 83.269531 18.90625 83.644531 C 21.46875 77.121094 22 71.617188 22 71.617188 C 22 70.714844 21.398438 69.925781 20.53125 69.6875 L 10.582031 66.941406 C 13.003906 65.15625 16.136719 62.699219 19.394531 59.523438 C 20.027344 58.910156 20.179688 57.953125 19.777344 57.171875 C 18.402344 54.515625 15.835938 53.378906 13.054688 52.15625 C 11.011719 51.261719 8.398438 49.777344 5.804688 48.234375 C 8.273438 46.582031 11.15625 45.167969 13.863281 44.296875 C 17.464844 43.136719 20.316406 42.679688 20.316406 42.679688 C 21.105469 42.554688 21.742188 41.972656 21.9375 41.199219 C 22.136719 40.425781 21.855469 39.609375 21.222656 39.121094 C 21.222656 39.121094 13.617188 32.796875 12.433594 21.957031 L 29.621094 25.277344 C 30.695312 25.484375 31.734375 24.789062 31.957031 23.71875 C 31.957031 23.71875 33.558594 15.234375 33.835938 6.175781 Z M 50 26 C 61.992188 26 72 37.460938 72 52 L 72 70 C 72 84.539062 61.992188 96 50 96 C 38.007812 96 28 84.539062 28 70 L 28 52 C 28 37.460938 38.007812 26 50 26 Z M 33.921875 41.972656 C 32.941406 41.976562 32.109375 42.6875 31.953125 43.65625 C 31.796875 44.625 32.367188 45.5625 33.296875 45.871094 C 33.296875 45.871094 34.695312 46.359375 37.230469 46.863281 C 34.15625 48.300781 32 51.402344 32 55 C 32 59.945312 36.054688 64 41 64 C 45.945312 64 50 59.945312 50 55 C 50 52.117188 48.601562 49.570312 46.476562 47.917969 C 47.589844 47.96875 48.75 48 50 48 C 51.25 48 52.410156 47.96875 53.523438 47.917969 C 51.398438 49.570312 50 52.117188 50 55 C 50 59.945312 54.054688 64 59 64 C 63.945312 64 68 59.945312 68 55 C 68 51.402344 65.84375 48.300781 62.769531 46.863281 C 65.304688 46.359375 66.703125 45.871094 66.703125 45.871094 C 67.621094 45.542969 68.167969 44.601562 67.996094 43.640625 C 67.828125 42.683594 66.992188 41.984375 66.019531 41.988281 C 65.773438 41.988281 65.527344 42.039062 65.296875 42.128906 C 65.296875 42.128906 60.414062 44 50 44 C 39.585938 44 34.703125 42.128906 34.703125 42.128906 C 34.457031 42.023438 34.191406 41.972656 33.921875 41.972656 Z M 41 50 C 43.785156 50 46 52.214844 46 55 C 46 57.785156 43.785156 60 41 60 C 38.214844 60 36 57.785156 36 55 C 36 52.214844 38.214844 50 41 50 Z M 59 50 C 61.785156 50 64 52.214844 64 55 C 64 57.785156 61.785156 60 59 60 C 56.214844 60 54 57.785156 54 55 C 54 52.214844 56.214844 50 59 50 Z M 60 52 C 58.894531 52 58 52.894531 58 54 C 58 55.105469 58.894531 56 60 56 C 61.105469 56 62 55.105469 62 54 C 62 52.894531 61.105469 52 60 52 Z M 40 54 C 38.894531 54 38 54.894531 38 56 C 38 57.105469 38.894531 58 40 58 C 41.105469 58 42 57.105469 42 56 C 42 54.894531 41.105469 54 40 54 Z M 51.96875 63.972656 C 50.867188 63.988281 49.984375 64.898438 50 66 L 50 71.539062 C 50 71.757812 49.980469 71.75 49.960938 71.878906 C 49.863281 71.859375 50.003906 71.871094 49.839844 71.796875 C 48.800781 71.316406 47.355469 70.066406 47.355469 70.066406 C 46.832031 69.570312 46.082031 69.398438 45.394531 69.609375 C 44.707031 69.820312 44.183594 70.386719 44.03125 71.089844 C 43.875 71.792969 44.109375 72.527344 44.644531 73.007812 C 44.644531 73.007812 46.199219 74.523438 48.160156 75.429688 C 49.140625 75.882812 50.417969 76.375 51.902344 75.691406 C 52.644531 75.347656 53.257812 74.65625 53.578125 73.921875 C 53.898438 73.1875 54 72.410156 54 71.539062 L 54 66 C 54.007812 65.460938 53.796875 64.9375 53.414062 64.558594 C 53.03125 64.175781 52.507812 63.964844 51.96875 63.972656 Z M 50 78 C 41.667969 78 35.367188 80.101562 35.367188 80.101562 C 34.6875 80.328125 34.183594 80.898438 34.039062 81.597656 C 33.894531 82.300781 34.136719 83.023438 34.671875 83.496094 C 35.207031 83.972656 35.953125 84.125 36.632812 83.898438 C 36.632812 83.898438 37.269531 83.714844 38.1875 83.476562 C 38.277344 83.886719 38.398438 84.328125 38.605469 84.800781 C 39.070312 85.859375 40.289062 86.855469 41.808594 87.433594 C 41.882812 87.949219 41.796875 88.09375 42.105469 88.800781 C 42.738281 90.25 44.488281 92 47 92 C 49.511719 92 51.261719 90.25 51.894531 88.800781 C 52.179688 88.144531 52.089844 88.035156 52.167969 87.535156 C 52.621094 87.425781 52.703125 87.546875 53.242188 87.238281 C 54.546875 86.492188 55.839844 84.761719 55.972656 82.382812 C 60.429688 82.9375 63.367188 83.898438 63.367188 83.898438 C 64.046875 84.125 64.792969 83.972656 65.328125 83.496094 C 65.863281 83.023438 66.105469 82.300781 65.960938 81.597656 C 65.816406 80.898438 65.3125 80.328125 64.632812 80.101562 C 64.632812 80.101562 58.332031 78 50 78 Z M 50 82 C 50.6875 82 51.339844 82.03125 51.996094 82.058594 C 51.984375 83.40625 51.628906 83.550781 51.257812 83.761719 C 50.882812 83.976562 50.5 84 50.5 84 C 49.394531 84 48.5 84.894531 48.5 86 C 48.5 86 48.472656 86.648438 48.230469 87.199219 C 47.988281 87.75 47.988281 88 47 88 C 46.011719 88 46.011719 87.75 45.769531 87.199219 C 45.527344 86.648438 45.5 86 45.5 86 C 45.5 84.894531 44.605469 84 43.5 84 C 42.511719 84 42.511719 83.75 42.269531 83.199219 C 42.1875 83.011719 42.15625 82.832031 42.117188 82.652344 C 44.296875 82.296875 46.984375 82 50 82 Z M 50 82 "/>
</g>
</svg>
