<?xml version="1.0" standalone="no"?>
<!DOCTYPE svg PUBLIC "-//W3C//DTD SVG 20010904//EN"
 "http://www.w3.org/TR/2001/REC-SVG-20010904/DTD/svg10.dtd">
<svg version="1.0" xmlns="http://www.w3.org/2000/svg"
 width="256.000000pt" height="192.000000pt" viewBox="0 0 256.000000 192.000000"
 preserveAspectRatio="xMidYMid meet">

<g transform="translate(0.000000,192.000000) scale(0.100000,-0.100000)"
fill="#000000" stroke="none">
<path d="M403 1836 c-89 -28 -147 -81 -189 -171 l-24 -50 0 -661 c0 -740 -2
-714 72 -799 22 -25 64 -58 92 -73 l51 -27 867 -3 c847 -2 867 -2 920 18 68
25 133 87 167 159 l26 56 0 660 c0 627 -1 663 -19 710 -25 65 -94 137 -159
166 l-52 24 -855 2 c-684 1 -863 -1 -897 -11z m1544 -388 c32 -30 29 -55 -13
-118 -66 -101 -144 -271 -214 -465 -12 -33 -29 -78 -39 -100 -10 -22 -19 -65
-20 -96 -3 -92 21 -103 166 -73 94 19 140 13 153 -22 6 -14 10 -29 10 -35 0
-23 -197 -79 -279 -79 -63 0 -87 9 -133 53 -38 34 -38 35 -38 113 0 68 7 99
56 243 62 185 217 512 270 568 37 39 50 41 81 11z m-436 -37 c25 -25 29 -37
29 -83 -1 -58 -6 -80 -73 -333 -49 -183 -72 -295 -86 -418 -5 -43 -14 -84 -21
-92 -18 -22 -70 -29 -87 -12 -35 35 -28 92 51 416 42 173 75 316 73 318 -2 2
-32 -50 -67 -114 -167 -311 -246 -427 -333 -492 -29 -21 -60 -41 -70 -44 -27
-10 -65 10 -88 45 -31 49 -21 163 30 362 23 87 41 164 41 170 0 24 -26 -21
-138 -240 -146 -283 -239 -444 -258 -444 -20 0 -54 59 -54 95 0 17 14 55 31
85 18 30 47 84 67 120 19 36 53 96 74 134 22 37 77 134 122 215 183 324 180
320 223 305 38 -13 73 -68 73 -114 0 -46 -20 -156 -66 -357 -35 -155 -41 -213
-24 -213 13 0 109 146 215 325 152 259 207 349 228 373 29 31 72 29 108 -7z"/>
</g>
</svg>
